<svg xmlns="http://www.w3.org/2000/svg" xmlns:xlink="http://www.w3.org/1999/xlink" width="750" zoomAndPan="magnify" viewBox="0 0 562.5 562.499982" height="750" preserveAspectRatio="xMidYMid meet" version="1.0"><defs><clipPath id="cf79b5e2ef"><path d="M 11 12 L 551 12 L 551 562 L 11 562 Z M 11 12 " clip-rule="nonzero"/></clipPath></defs><g clip-path="url(#cf79b5e2ef)"><path fill="#ffffff" d="M 45.578125 61.066406 C 57.933594 43.457031 76.058594 33.597656 93.609375 23.71875 C 106.253906 16.601562 120.535156 13.058594 135.753906 12.34375 C 159.679688 11.222656 180.792969 18.117188 199.347656 31.949219 C 210.632812 40.363281 220.605469 50.945312 229.667969 61.804688 C 237.730469 71.46875 244.1875 82.585938 250.519531 93.542969 C 260.132812 110.1875 267.070312 128.015625 271.65625 146.726562 C 276.15625 165.070312 279.953125 183.515625 280.542969 202.484375 C 280.566406 203.308594 281.226562 204.113281 281.589844 204.925781 C 282.492188 203.984375 284.039062 203.136719 284.195312 202.082031 C 286.390625 187.367188 292.316406 173.921875 297.847656 160.296875 C 303.613281 146.101562 310.941406 132.824219 320.796875 121.164062 C 329.753906 110.570312 339.105469 100.25 348.957031 90.488281 C 362.703125 76.863281 376.417969 63.066406 391.363281 50.835938 C 406.648438 38.332031 424.261719 29.453125 443.925781 25.320312 C 474.171875 18.964844 502.492188 21.714844 525.378906 44.746094 C 538.675781 58.125 546.136719 75.050781 548.527344 93.839844 C 549.871094 104.386719 551.328125 115.085938 550.917969 125.644531 C 550.222656 143.621094 546.546875 161.195312 541.621094 178.585938 C 534.292969 204.457031 522.902344 228.550781 511.664062 252.8125 C 502.34375 272.941406 494.441406 293.730469 485.257812 313.929688 C 479.605469 326.367188 472.835938 338.304688 466.382812 350.367188 C 460.191406 361.9375 454.089844 373.570312 447.375 384.839844 C 433.054688 408.871094 418.417969 432.710938 403.820312 456.574219 C 385.097656 487.183594 366.507812 517.875 347.351562 548.207031 C 342.816406 555.386719 336.769531 561.851562 330.445312 567.574219 C 325.023438 572.480469 318.804688 570.238281 314.042969 564.335938 C 309.988281 559.308594 305.007812 555.019531 300.367188 550.472656 C 282.230469 532.722656 263.445312 515.589844 246.125 497.074219 C 233.71875 483.8125 222.980469 468.9375 212.03125 454.382812 C 202.730469 442.019531 190.878906 432.507812 179.074219 422.890625 C 168.871094 414.574219 158.550781 406.398438 148.175781 398.296875 C 125.484375 380.578125 104 361.515625 84.234375 340.582031 C 69.136719 324.589844 56.511719 306.757812 45.160156 287.898438 C 31.808594 265.722656 23.042969 241.753906 16.480469 216.976562 C 13.867188 207.113281 13.472656 196.632812 12.445312 186.394531 C 11.6875 178.804688 10.726562 171.097656 11.265625 163.546875 C 12.933594 140.09375 16.792969 117.035156 27.4375 95.703125 C 33.191406 84.167969 39.308594 72.816406 45.578125 61.066406 M 401.277344 80.984375 C 389.90625 85.667969 378.902344 90.917969 371.132812 101.015625 C 359.949219 115.558594 347.660156 129.398438 337.898438 144.839844 C 326.101562 163.5 316.074219 183.320312 305.988281 203.003906 C 296.816406 220.902344 295.070312 240.890625 292.003906 260.386719 C 290.453125 270.25 290.378906 280.339844 289.300781 290.289062 C 288.285156 299.632812 280.058594 304.496094 274.398438 298.90625 C 272.148438 296.679688 272.519531 291.824219 271.628906 288.179688 C 271.332031 286.960938 270.828125 285.792969 270.421875 284.605469 C 269.566406 285.59375 268.414062 286.449219 267.902344 287.59375 C 265.675781 292.570312 263.859375 297.734375 261.457031 302.617188 C 259.539062 306.519531 252.195312 309.269531 249.328125 306.960938 C 245.835938 304.152344 242.074219 301.277344 244.953125 295.246094 C 249.636719 285.417969 253.5625 275.21875 257.582031 265.085938 C 259.4375 260.410156 261.300781 256.058594 258.613281 250.429688 C 251.65625 235.855469 245.480469 220.902344 239.242188 205.996094 C 229.046875 181.640625 215.460938 159.28125 199.363281 138.464844 C 191.132812 127.816406 182.199219 117.707031 173.5 107.433594 C 156.71875 87.617188 138.050781 70.109375 113.53125 60.1875 C 103.988281 56.324219 94.105469 53.550781 83.679688 56.960938 C 74.125 60.085938 68.910156 68.300781 63.160156 75.480469 C 59.210938 80.414062 56.234375 86.527344 54.304688 92.582031 C 51.21875 102.277344 49.324219 112.242188 51.449219 122.695312 C 53.019531 130.40625 52.503906 138.582031 54.386719 146.1875 C 59.699219 167.660156 67.652344 188.265625 77.996094 207.804688 C 88.632812 227.890625 99.589844 247.828125 111.132812 267.402344 C 123.757812 288.804688 136.875 309.941406 150.402344 330.785156 C 165.652344 354.277344 181.464844 377.402344 197.3125 400.496094 C 203.453125 409.441406 209.511719 418.714844 217.140625 426.300781 C 225.222656 434.335938 234.925781 440.828125 244.289062 447.476562 C 260.355469 458.882812 276.464844 470.265625 293.019531 480.9375 C 305.546875 489.011719 318.804688 495.949219 331.722656 503.417969 C 335.433594 505.5625 338.230469 505.859375 340.46875 501.132812 C 342.652344 496.527344 345.792969 492.386719 348.394531 487.972656 C 358.671875 470.527344 368.894531 453.054688 379.148438 435.597656 C 388.109375 420.34375 396.925781 405 406.105469 389.878906 C 416.34375 373.011719 427.105469 356.460938 437.300781 339.566406 C 450.308594 318.019531 462.292969 295.824219 475.949219 274.703125 C 495.402344 244.613281 502.507812 211.074219 505.398438 176.308594 C 506.371094 164.589844 505.214844 152.617188 504.234375 140.828125 C 503.183594 128.164062 500.007812 116.054688 493.039062 105.03125 C 479.679688 83.90625 460.585938 72.179688 435.8125 72.566406 C 424.472656 72.746094 413.210938 77.613281 401.277344 80.984375 M 260.894531 192.28125 C 258.074219 178.074219 256.476562 163.480469 252.105469 149.769531 C 247.105469 134.074219 240.582031 118.679688 233.027344 104.027344 C 220.308594 79.367188 203.460938 57.90625 179.058594 43.398438 C 160.394531 32.304688 140.621094 29.304688 119.640625 35.125 C 117.519531 35.710938 115.582031 36.972656 113.554688 37.917969 C 115.589844 38.785156 117.621094 39.644531 119.652344 40.515625 C 120.1875 40.746094 120.699219 41.050781 121.246094 41.242188 C 139.328125 47.542969 154.375 58.855469 167.863281 71.808594 C 180.945312 84.375 192.640625 98.410156 204.640625 112.070312 C 222.570312 132.480469 236.214844 155.777344 248.785156 179.695312 C 253.117188 187.941406 256.277344 196.800781 260.117188 205.3125 C 260.539062 206.25 261.917969 206.753906 262.855469 207.457031 C 263.152344 206.300781 263.847656 205.089844 263.683594 204.003906 C 263.128906 200.28125 262.269531 196.605469 260.894531 192.28125 M 34.511719 149.28125 C 33.457031 151.964844 31.519531 154.652344 31.511719 157.339844 C 31.496094 166.007812 32.132812 174.679688 32.636719 183.34375 C 32.933594 188.441406 32.828125 193.675781 33.996094 198.585938 C 37.757812 214.382812 41.453125 230.101562 47.503906 245.394531 C 59.390625 275.441406 76.722656 301.761719 98.289062 325.371094 C 108.980469 337.070312 120.941406 347.628906 132.515625 358.5 C 138.949219 364.539062 145.742188 370.195312 152.460938 375.917969 C 153.519531 376.816406 155.054688 377.152344 156.371094 377.75 C 155.898438 376.308594 155.75 374.644531 154.90625 373.472656 C 149.640625 366.144531 143.78125 359.210938 138.941406 351.625 C 128.246094 334.851562 117.871094 317.867188 107.671875 300.789062 C 93.671875 277.347656 79.152344 254.164062 66.332031 230.089844 C 52.742188 204.570312 39.234375 178.75 34.511719 149.28125 M 439.21875 53.160156 C 447.828125 51.527344 455.960938 53.742188 463.964844 56.441406 C 486.910156 64.1875 503.21875 79.847656 514.320312 100.777344 C 522.203125 115.648438 525.738281 131.878906 524.65625 148.914062 C 524.570312 150.269531 525.425781 151.6875 525.84375 153.074219 C 526.691406 151.65625 528.207031 150.269531 528.277344 148.8125 C 528.882812 136.160156 529.777344 123.476562 529.449219 110.835938 C 529.238281 102.703125 527.789062 94.445312 525.734375 86.546875 C 518.3125 58.054688 495.78125 41.941406 466.578125 43.242188 C 456.910156 43.671875 447.316406 46.285156 437.746094 48.1875 C 435.011719 48.730469 432.480469 50.289062 429.855469 51.382812 C 432.554688 51.976562 435.253906 52.570312 439.21875 53.160156 M 277.335938 494.546875 C 276.171875 493.800781 275.078125 492.886719 273.820312 492.355469 C 272.128906 491.640625 270.3125 491.230469 268.550781 490.6875 C 269.425781 492.027344 270.078125 493.605469 271.210938 494.671875 C 284.367188 507.097656 297.539062 519.503906 310.902344 531.703125 C 312.039062 532.738281 315.039062 533.078125 316.324219 532.3125 C 318.78125 530.855469 321.011719 528.617188 322.542969 526.199219 C 323.21875 525.132812 322.554688 521.890625 321.507812 521.25 C 307.09375 512.394531 292.511719 503.820312 277.335938 494.546875 Z M 277.335938 494.546875 " fill-opacity="1" fill-rule="nonzero"/></g></svg>