<svg xmlns="http://www.w3.org/2000/svg" width="750" height="750" version="1.0" viewBox="0 0 562.5 562.5"><defs><clipPath id="a"><path d="M11 12h540v550H11Zm0 0"/></clipPath></defs><g clip-path="url(#a)"><path fill="#fff" d="M45.578 61.066C57.934 43.457 76.058 33.598 93.61 23.72c12.645-7.117 26.926-10.66 42.145-11.375 23.926-1.121 45.039 5.773 63.594 19.605 11.285 8.414 21.257 18.996 30.32 29.856 8.062 9.664 14.52 20.78 20.852 31.738 9.613 16.644 16.55 34.473 21.136 53.184 4.5 18.343 8.297 36.789 8.887 55.757.023.825.684 1.63 1.047 2.442.902-.942 2.45-1.79 2.605-2.844 2.196-14.715 8.121-28.16 13.653-41.785 5.765-14.195 13.093-27.473 22.949-39.133 8.957-10.594 18.308-20.914 28.16-30.676 13.746-13.625 27.461-27.422 42.406-39.652 15.285-12.504 32.899-21.383 52.563-25.516 30.246-6.355 58.566-3.605 81.453 19.426 13.297 13.379 20.758 30.305 23.148 49.094 1.344 10.547 2.801 21.246 2.391 31.805-.695 17.976-4.371 35.55-9.297 52.94-7.328 25.872-18.719 49.966-29.957 74.227-9.32 20.13-17.223 40.918-26.406 61.118-5.653 12.437-12.422 24.375-18.875 36.437-6.192 11.57-12.293 23.203-19.008 34.473-14.32 24.031-28.957 47.87-43.555 71.734-18.722 30.61-37.312 61.301-56.468 91.633-4.536 7.18-10.582 13.645-16.907 19.367-5.422 4.906-11.64 2.664-16.402-3.238-4.055-5.027-9.035-9.316-13.676-13.863-18.137-17.75-36.922-34.883-54.242-53.399-12.406-13.262-23.145-28.137-34.094-42.691-9.3-12.363-21.152-21.875-32.957-31.492-10.203-8.317-20.523-16.493-30.898-24.594-22.692-17.719-44.176-36.781-63.942-57.715-15.097-15.992-27.722-33.824-39.074-52.684-13.351-22.175-22.117-46.144-28.68-70.921-2.613-9.864-3.007-20.344-4.035-30.582-.758-7.59-1.718-15.297-1.18-22.848 1.669-23.453 5.528-46.512 16.173-67.844 5.753-11.535 11.87-22.887 18.14-34.637m355.7 19.918c-11.372 4.684-22.376 9.934-30.145 20.032-11.184 14.543-23.473 28.382-33.235 43.824-11.796 18.66-21.824 38.48-31.91 58.164-9.172 17.898-10.918 37.887-13.984 57.383-1.55 9.863-1.625 19.953-2.703 29.902-1.016 9.344-9.242 14.207-14.903 8.617-2.25-2.226-1.878-7.082-2.77-10.726-.296-1.22-.8-2.387-1.206-3.575-.856.989-2.008 1.844-2.52 2.989-2.226 4.976-4.043 10.14-6.445 15.023-1.918 3.903-9.262 6.653-12.129 4.344-3.492-2.809-7.254-5.684-4.375-11.715 4.684-9.828 8.61-20.027 12.629-30.16 1.856-4.676 3.719-9.027 1.031-14.656-6.957-14.575-13.133-29.528-19.37-44.434-10.196-24.355-23.782-46.715-39.88-67.531-8.23-10.649-17.164-20.758-25.863-31.031-16.781-19.817-35.45-37.325-59.969-47.246-9.543-3.864-19.426-6.637-29.851-3.227-9.555 3.125-14.77 11.34-20.52 18.52-3.95 4.933-6.926 11.046-8.855 17.101-3.086 9.695-4.98 19.66-2.856 30.113 1.57 7.711 1.055 15.887 2.938 23.493 5.312 21.472 13.265 42.078 23.61 61.617 10.636 20.086 21.593 40.023 33.136 59.597 12.625 21.403 25.742 42.54 39.27 63.383 15.25 23.492 31.062 46.617 46.91 69.711 6.14 8.945 12.199 18.219 19.828 25.805 8.082 8.035 17.785 14.527 27.148 21.176 16.066 11.406 32.176 22.789 48.73 33.46 12.528 8.075 25.786 15.012 38.704 22.481 3.71 2.144 6.507 2.441 8.746-2.285 2.183-4.606 5.324-8.746 7.926-13.16 10.277-17.446 20.5-34.918 30.753-52.375 8.961-15.254 17.778-30.598 26.957-45.72 10.239-16.866 21-33.417 31.196-50.312 13.008-21.546 24.992-43.742 38.648-64.863 19.453-30.09 26.559-63.629 29.45-98.394.972-11.72-.184-23.692-1.165-35.48-1.05-12.665-4.226-24.774-11.195-35.798-13.36-21.125-32.453-32.851-57.226-32.465-11.34.18-22.602 5.047-34.536 8.418M260.895 192.281c-2.82-14.207-4.418-28.8-8.79-42.511-5-15.696-11.523-31.09-19.078-45.743-12.718-24.66-29.566-46.12-53.968-60.629-18.664-11.093-38.438-14.093-59.418-8.273-2.121.586-4.059 1.848-6.086 2.793 2.035.867 4.066 1.727 6.097 2.598.535.23 1.047.535 1.594.726 18.082 6.301 33.129 17.613 46.617 30.567 13.082 12.566 24.778 26.601 36.778 40.261 17.93 20.41 31.574 43.707 44.144 67.625 4.332 8.246 7.492 17.106 11.332 25.618.422.937 1.801 1.44 2.738 2.144.297-1.156.993-2.367.829-3.453-.555-3.723-1.414-7.399-2.79-11.723m-226.382-43c-1.055 2.684-2.992 5.371-3 8.059-.016 8.668.62 17.34 1.125 26.004.297 5.097.191 10.332 1.36 15.242 3.76 15.797 7.456 31.516 13.507 46.809 11.887 30.046 29.219 56.367 50.785 79.976 10.691 11.7 22.652 22.258 34.227 33.129 6.433 6.04 13.226 11.695 19.945 17.418 1.059.898 2.594 1.234 3.91 1.832-.473-1.441-.621-3.105-1.465-4.277-5.265-7.328-11.125-14.262-15.965-21.848-10.695-16.773-21.07-33.758-31.27-50.836-14-23.441-28.519-46.625-41.339-70.7-13.59-25.519-27.098-51.339-31.82-80.808m404.707-96.12c8.61-1.634 16.742.581 24.746 3.28 22.945 7.746 39.254 23.407 50.355 44.336 7.883 14.871 11.418 31.102 10.336 48.137-.086 1.356.77 2.774 1.188 4.16.847-1.418 2.363-2.804 2.433-4.262.606-12.652 1.5-25.335 1.172-37.976-.21-8.133-1.66-16.39-3.715-24.29-7.422-28.491-29.953-44.605-59.156-43.304-9.668.43-19.262 3.043-28.832 4.946-2.734.542-5.266 2.101-7.89 3.195 2.699.594 5.398 1.187 9.363 1.777M277.336 494.547c-1.164-.746-2.258-1.66-3.516-2.192-1.691-.714-3.507-1.125-5.27-1.668.876 1.34 1.528 2.918 2.66 3.985 13.157 12.426 26.33 24.832 39.692 37.031 1.137 1.035 4.137 1.375 5.422.61 2.457-1.458 4.688-3.696 6.219-6.114.676-1.066.012-4.308-1.035-4.949-14.414-8.855-28.996-17.43-44.172-26.703m0 0"/></g></svg>