<svg version="1.2" xmlns="http://www.w3.org/2000/svg" viewBox="0 0 563 219" width="563" height="219">
    <defs>
        <clipPath clipPathUnits="userSpaceOnUse" id="cp1">
            <path d="m30.8 12.13l185.83-0.01v192.88h-185.83z" />
        </clipPath>
    </defs>
    <style>
        *{
            fill: #951a11;
        }
    </style>
    <g clip-path="url(#cp1)">
        <path
            d="m42.8 29.4c4.2-6.1 10.5-9.4 16.5-12.8 4.3-2.5 9.2-3.7 14.5-4 8.2-0.3 15.5 2 21.8 6.8 3.9 2.9 7.4 6.5 10.5 10.3 2.7 3.3 5 7.1 7.1 10.9 3.3 5.7 5.7 11.8 7.3 18.3 1.6 6.3 2.9 12.6 3.1 19.1 0 0.3 0.2 0.6 0.3 0.9 0.3-0.3 0.9-0.6 0.9-1 0.8-5.1 2.8-9.7 4.7-14.4 2-4.8 4.5-9.4 7.9-13.4 3.1-3.7 6.3-7.2 9.7-10.6 4.7-4.7 9.4-9.4 14.6-13.6 5.2-4.3 11.3-7.4 18-8.8 10.4-2.2 20.2-1.2 28 6.7 4.6 4.6 7.2 10.4 8 16.9 0.5 3.6 1 7.3 0.8 10.9-0.2 6.2-1.5 12.2-3.2 18.2-2.5 8.9-6.4 17.2-10.3 25.6-3.2 6.9-5.9 14-9.1 21-1.9 4.3-4.2 8.4-6.5 12.5-2.1 4-4.2 8-6.5 11.9-4.9 8.2-9.9 16.4-15 24.7-6.4 10.5-12.8 21-19.4 31.5-1.5 2.4-3.6 4.7-5.8 6.6-1.8 1.7-4 1-5.6-1.1-1.4-1.7-3.1-3.2-4.7-4.7-6.3-6.2-12.7-12-18.7-18.4-4.2-4.6-7.9-9.7-11.7-14.7-3.2-4.3-7.3-7.5-11.3-10.8q-5.3-4.3-10.6-8.5c-7.8-6.1-15.2-12.6-22-19.8-5.2-5.5-9.6-11.7-13.5-18.2-4.6-7.6-7.6-15.8-9.8-24.4-0.9-3.4-1.1-7-1.4-10.5-0.3-2.6-0.6-5.3-0.4-7.8 0.6-8.1 1.9-16 5.5-23.4 2-4 4.1-7.9 6.3-11.9zm122.3 6.9c-3.9 1.6-7.7 3.4-10.4 6.8-3.8 5-8.1 9.8-11.4 15.1-4.1 6.4-7.5 13.3-11 20-3.1 6.2-3.7 13.1-4.8 19.8-0.5 3.4-0.6 6.8-0.9 10.2-0.4 3.3-3.2 4.9-5.2 3-0.7-0.8-0.6-2.4-0.9-3.7-0.1-0.4-0.3-0.8-0.4-1.2-0.3 0.3-0.7 0.6-0.9 1-0.8 1.7-1.4 3.5-2.2 5.2-0.7 1.3-3.2 2.3-4.2 1.5-1.2-1-2.5-2-1.5-4 1.6-3.4 3-6.9 4.4-10.4 0.6-1.6 1.2-3.1 0.3-5.1-2.4-5-4.5-10.1-6.6-15.2-3.5-8.4-8.2-16.1-13.8-23.3-2.8-3.6-5.8-7.1-8.8-10.6-5.8-6.9-12.2-12.9-20.7-16.3-3.2-1.3-6.6-2.3-10.2-1.1-3.3 1.1-5.1 3.9-7.1 6.4-1.3 1.7-2.4 3.8-3 5.8-1.1 3.4-1.7 6.8-1 10.4 0.5 2.7 0.4 5.5 1 8.1 1.8 7.4 4.6 14.5 8.1 21.2 3.7 6.9 7.4 13.7 11.4 20.5q6.5 11 13.5 21.8c5.3 8.1 10.7 16 16.1 24 2.2 3 4.2 6.2 6.9 8.8 2.7 2.8 6.1 5 9.3 7.3 5.5 3.9 11.1 7.9 16.7 11.5 4.4 2.8 8.9 5.2 13.4 7.8 1.2 0.7 2.2 0.8 3-0.8 0.7-1.6 1.8-3 2.7-4.6q5.3-9 10.6-18c3-5.2 6.1-10.5 9.2-15.7 3.5-5.8 7.2-11.5 10.7-17.3 4.5-7.4 8.6-15 13.3-22.3 6.7-10.4 9.2-21.9 10.2-33.9 0.3-4-0.1-8.1-0.4-12.2-0.4-4.3-1.5-8.5-3.9-12.3-4.6-7.2-11.1-11.3-19.7-11.1-3.9 0-7.7 1.7-11.8 2.9zm-48.3 38.2c-1-4.8-1.5-9.9-3-14.6-1.7-5.4-4-10.7-6.6-15.7-4.4-8.5-10.1-15.9-18.5-20.9-6.4-3.8-13.2-4.8-20.5-2.8-0.7 0.2-1.4 0.6-2.1 0.9q1.1 0.5 2.1 0.9c0.2 0.1 0.4 0.2 0.6 0.3 6.2 2.1 11.4 6 16 10.5 4.5 4.3 8.5 9.1 12.7 13.8 6.1 7.1 10.8 15.1 15.1 23.3 1.5 2.8 2.6 5.9 3.9 8.8 0.2 0.3 0.7 0.5 1 0.8 0.1-0.4 0.3-0.9 0.3-1.2-0.2-1.3-0.5-2.6-1-4.1zm-77.8-14.8c-0.4 1-1.1 1.9-1.1 2.8 0 3 0.3 6 0.4 9 0.1 1.7 0.1 3.5 0.5 5.2 1.3 5.4 2.6 10.8 4.6 16.1 4.1 10.3 10.1 19.4 17.5 27.5 3.7 4 7.8 7.7 11.8 11.4 2.2 2.1 4.5 4 6.8 6 0.4 0.3 0.9 0.4 1.4 0.6-0.2-0.5-0.2-1-0.5-1.4-1.8-2.6-3.9-4.9-5.5-7.6q-5.5-8.6-10.8-17.4c-4.8-8.1-9.8-16.1-14.2-24.4-4.7-8.7-9.3-17.6-10.9-27.8zm139.1-33c3-0.6 5.8 0.2 8.5 1.1 7.9 2.7 13.5 8.1 17.3 15.3 2.7 5.1 4 10.7 3.6 16.5 0 0.5 0.3 1 0.4 1.5 0.3-0.5 0.8-1 0.8-1.5 0.2-4.4 0.5-8.7 0.4-13.1 0-2.8-0.5-5.6-1.2-8.3-2.6-9.8-10.3-15.4-20.4-14.9-3.3 0.1-6.6 1-9.9 1.7-0.9 0.2-1.8 0.7-2.7 1.1 0.9 0.2 1.8 0.4 3.2 0.6zm-55.6 151.8c-0.4-0.2-0.8-0.6-1.3-0.7-0.5-0.3-1.2-0.4-1.8-0.6 0.3 0.4 0.6 1 0.9 1.4 4.6 4.2 9.1 8.5 13.7 12.7 0.4 0.4 1.4 0.5 1.9 0.2 0.8-0.5 1.6-1.3 2.1-2.1 0.2-0.4 0-1.5-0.4-1.7-4.9-3-9.9-6-15.1-9.2z" />
    </g>
    <path
        d="m305.5 164.5q2 0 3.9-1.4l1.7 2.7q-1.3 0.9-2.8 1.4-1.5 0.4-2.9 0.4-2.6 0-4.6-1.1-2-1.1-3.1-3-1.1-1.9-1.1-4.4 0-2.3 1.2-4.3 1.2-1.9 3.2-3.1 2.1-1.1 4.5-1.1 3.2 0 5.3 1.8 2.1 1.8 2.9 5.1l-12.8 4.5q0.8 1.2 1.9 1.9 1.2 0.6 2.7 0.6zm-0.3-11.1q-2.2 0-3.6 1.6-1.4 1.5-1.4 3.9 0 0.6 0 0.9l9.4-3.4q-0.6-1.3-1.7-2.2-1.1-0.8-2.7-0.8z" />
    <path d="m333.4 151.2l-8.5 16.5h-0.2l-9-16.5h4.3l4.9 10.2 4.5-10.2z" />
    <path
        d="m340.9 151.2v16.1h-3.6v-16.1zm-3.9-5.8q0-0.8 0.7-1.4 0.6-0.6 1.5-0.6 0.8 0 1.5 0.6 0.6 0.6 0.6 1.4 0 0.9-0.6 1.5-0.7 0.6-1.5 0.6-0.9 0-1.5-0.6-0.7-0.6-0.7-1.5z" />
    <path
        d="m357.1 150.6q2.3 0 3.7 1.3 1.5 1.4 1.5 3.5v11.9h-3.6v-10.7q-0.1-1.3-0.8-2.1-0.8-0.8-2.2-0.8-2.1 0-3.6 1.7-1.3 1.7-1.3 4.3v7.6h-3.6v-16.1h3.2l0.2 3.1q0.9-1.7 2.6-2.7 1.7-1 3.9-1z" />
    <path
        d="m237.9 182.1q2.2 0 3.8-1.6 1.6-1.5 1.7-3.8v-47.8q-0.1-3.1-2.9-4.6-1.2-0.7-2.6-0.7h-1.2v-0.9h26.2l-0.1 0.9h-1q-2.3 0-3.9 1.6-1.6 1.5-1.6 3.7v47.8q0 2.3 1.6 3.8 1.6 1.6 3.9 1.6h1l0.1 0.9h-26.2v-0.9zm85.5 15.5q-6.3 3.3-11.5 3.3-5.1 0-9.2-1.5-10.3-3.7-21-16.9l-22.6-27.9 20.4-27q0.7-0.9 0.7-1.6 0-0.7-0.3-1.2-0.7-1.3-2.4-1.3h-0.8v-0.8h19.7v0.8h-0.4q-5.7 0-9.3 4.2l-16.8 19.9 23.4 29.1q7.8 10.3 14.7 15 6.9 4.6 15.3 5.1z" />
    <path
        d="m287.6 50.7q2.5 0 4.2 1.5 1.6 1.5 1.7 3.9v13.1h-4.1v-11.8q-0.1-1.5-0.9-2.3-0.8-0.9-2.5-0.9-2.3 0-3.9 1.9-1.5 1.9-1.5 4.8v8.3h-4v-17.8h3.6l0.3 3.5q0.9-2 2.8-3.1 1.9-1.1 4.3-1.1z" />
    <path
        d="m319 35.9v33.3h-4.1v-2.8q-1.3 1.5-3.1 2.4-1.9 0.9-4.1 0.9-2.5 0-4.6-1.2-2-1.2-3.1-3.4-1.2-2.2-1.2-5 0-2.9 1.2-5 1.2-2.2 3.3-3.3 2.2-1.1 4.8-1.1 2.1 0 3.9 0.8 1.9 0.9 3 2.3v-17.9zm-10.1 30.3q2.3 0 3.9-1.2 1.7-1.3 2.1-3.4v-3.3q-0.5-2-2.2-3.2-1.7-1.2-3.8-1.2-1.6 0-3 0.8-1.4 0.8-2.2 2.2-0.8 1.4-0.8 3.1 0 1.8 0.8 3.2 0.8 1.4 2.2 2.2 1.4 0.8 3 0.8z" />
    <path
        d="m342.5 51.4v17.8h-3.6l-0.3-3.4q-0.9 1.9-2.8 3-1.9 1.1-4.2 1.1-2.5 0-4-1.5-1.6-1.4-1.7-3.8v-13.2h4v11.8q0.1 1.5 0.9 2.4 0.8 0.8 2.4 0.9 1.4 0 2.6-0.9 1.3-0.9 2-2.4 0.7-1.6 0.7-3.5v-8.3z" />
    <path
        d="m372.3 50.7q2.6 0 4.1 1.5 1.5 1.4 1.6 3.8v13.2h-4v-11.7q-0.1-3.1-2.8-3.3-1.6 0-2.8 0.9-1.2 0.9-1.9 2.4-0.7 1.5-0.7 3.3v8.4h-4.1v-11.7q-0.1-3.1-2.9-3.3-1.5 0-2.7 0.9-1.3 0.9-2 2.5-0.7 1.5-0.7 3.2v8.4h-4v-17.8h3.7l0.3 3.4q1-2 2.8-3 1.8-1.1 4.1-1.1 2.1 0 3.6 1 1.4 1 1.9 2.8 1.1-1.8 2.8-2.8 1.7-1 3.7-1z" />
    <path
        d="m393.3 66.2q2.2 0 4.4-1.5l1.8 2.9q-1.4 1-3.1 1.5-1.6 0.6-3.2 0.6-3 0-5.2-1.2-2.2-1.3-3.4-3.4-1.2-2.2-1.2-4.9 0-2.6 1.3-4.8 1.3-2.2 3.6-3.4 2.3-1.3 5-1.3 3.5 0 5.8 2 2.4 2.1 3.2 5.7l-14.1 5q0.8 1.3 2.1 2.1 1.3 0.7 3 0.7zm-0.3-12.3q-2.5 0-4 1.7-1.6 1.7-1.6 4.4 0 0.6 0 1l10.4-3.9q-0.7-1.4-1.8-2.3-1.2-0.9-3-0.9z" />
    <path
        d="m418.4 50.7q2.5 0 4.1 1.5 1.7 1.5 1.7 3.9v13.1h-4v-11.8q-0.1-1.5-0.9-2.3-0.9-0.9-2.5-0.9-2.4 0-3.9 1.9-1.6 1.9-1.6 4.8v8.3h-4v-17.8h3.7l0.2 3.5q1-2 2.9-3.1 1.8-1.1 4.3-1.1z" />
    <path d="m436.9 43.6v7.9h4.9v3.1h-4.9v14.6h-4v-14.6h-3.3v-3.1h3.3v-7.9z" />
    <path
        d="m464.9 51.4v17.8h-4v-2.9q-0.9 1.3-2.7 2.3-1.8 1.1-4.1 1.1-2.6 0-4.6-1.1-2-1.1-3.2-3.2-1.2-2.1-1.2-5.1 0-2.9 1.2-5.1 1.2-2.1 3.3-3.3 2.1-1.2 4.7-1.2 2.2 0 3.9 1 1.7 1 2.7 2.6l0.3-2.9zm-9.7 15q2.1 0 3.7-1.3 1.6-1.2 2-3.3v-3.5q-0.5-1.9-2.1-3.1-1.7-1.2-3.8-1.2-1.6 0-2.9 0.8-1.4 0.8-2.2 2.2-0.8 1.4-0.8 3.1 0 1.7 0.8 3.2 0.9 1.4 2.2 2.2 1.4 0.9 3.1 0.9z" />
    <path
        d="m475.8 55.6q0.7-1.4 1.9-2.5 1.3-1.2 2.7-1.8 1.4-0.6 2.5-0.6l-0.2 4q-1.9-0.1-3.5 0.8-1.5 0.8-2.4 2.4-0.9 1.5-0.9 3.2v8.1h-4v-17.8h3.6z" />
    <path
        d="m492.1 51.4v17.8h-4v-17.8zm-4.3-6.4q0-0.9 0.7-1.6 0.7-0.6 1.7-0.6 0.9 0 1.6 0.6 0.8 0.7 0.8 1.6 0 1-0.8 1.6-0.7 0.6-1.6 0.6-1 0-1.7-0.6-0.7-0.6-0.7-1.6z" />
    <path
        d="m517.3 51.4v17.8h-4v-2.9q-0.9 1.3-2.7 2.3-1.8 1.1-4.1 1.1-2.5 0-4.6-1.1-2-1.1-3.2-3.2-1.2-2.1-1.2-5.1 0-2.9 1.2-5.1 1.3-2.1 3.3-3.3 2.1-1.2 4.7-1.2 2.3 0 3.9 1 1.7 1 2.7 2.6l0.3-2.9zm-9.7 15q2.2 0 3.7-1.3 1.6-1.2 2-3.3v-3.5q-0.5-1.9-2.1-3.1-1.7-1.2-3.8-1.2-1.6 0-2.9 0.8-1.4 0.8-2.2 2.2-0.8 1.4-0.8 3.1 0 1.7 0.9 3.2 0.8 1.4 2.2 2.2 1.3 0.9 3 0.9z" />
    <path
        d="m267.9 84.1h1.1v0.9h-26.1v-0.9h1.1q2.2 0 3.8-1.6 1.6-1.6 1.7-3.8v-50.4l-8.2 0.3q-8.1 0.3-8.1 6 0 2.3 1.6 3.9 1.6 1.6 4.4 1.6 0.3 0 0.6 0v0.5q-1.8 0.6-3 0.6-3.8 0-5.9-2.7-1.5-1.9-1.5-4.3 0-3.8 3-6.3 3-2.4 9.2-2.8 1.1-0.1 7.2-0.4 13.9-0.5 20.2-1.7l0.2 0.9q-3.7 0.6-5.2 2.5-1.5 1.9-1.6 5.5v46.8q0.1 2.2 1.7 3.8 1.6 1.6 3.8 1.6z" />
</svg>